<?xml version="1.0" encoding="UTF-8"?> <svg xmlns="http://www.w3.org/2000/svg" viewBox="0 0 215.37 62.36"><defs><style>.cls-1{fill:#3c4b58;}.cls-2{fill:#7cac00;}.cls-3{fill:#fff;}</style></defs><title>envivo</title><g id="Layer_2" data-name="Layer 2"><g id="Layer_7" data-name="Layer 7"><path class="cls-1" d="M186.89,3.79a29.53,29.53,0,0,1,8.73,1.27A23.32,23.32,0,0,1,207,12.75a23.63,23.63,0,0,1,4.19,8.19,32.28,32.28,0,0,1,1.23,9.33v.91a41.45,41.45,0,0,1-.31,5.94A25.19,25.19,0,0,1,207.3,49.3a22.7,22.7,0,0,1-9,7,26.4,26.4,0,0,1-8.44,2.15c-1,.09-2.1.14-3.14.14H28.81c-.41,0-.81,0-1.22,0a29.36,29.36,0,0,1-9.74-2.09A22.83,22.83,0,0,1,7.45,48.1,25.32,25.32,0,0,1,4,40.19a38.35,38.35,0,0,1-1-10.42,32.26,32.26,0,0,1,1.19-8.7,23.27,23.27,0,0,1,6.68-10.93,23.88,23.88,0,0,1,9.6-5.31,30,30,0,0,1,8.52-1.11Z"></path><path class="cls-1" d="M84.47,4H29.72A29.31,29.31,0,0,0,21.3,5.1a23.66,23.66,0,0,0-9.51,5.25A23,23,0,0,0,5.18,21.17,32.06,32.06,0,0,0,4,29.79,38,38,0,0,0,5,40.1a25.15,25.15,0,0,0,3.45,7.83,22.54,22.54,0,0,0,10.29,8.35,29.06,29.06,0,0,0,9.64,2.07c.41,0,.81,0,1.21,0H84.47Z"></path><path class="cls-2" d="M210.15,21a23.54,23.54,0,0,0-4.14-8.1,23.07,23.07,0,0,0-11.28-7.61,29,29,0,0,0-8.64-1.26L90.89,4a6.41,6.41,0,0,0-6.42,6.41V52a6.41,6.41,0,0,0,6.41,6.41h95.06c1,0,2.07,0,3.11-.15a26.29,26.29,0,0,0,8.36-2.12,22.63,22.63,0,0,0,8.88-7,24.87,24.87,0,0,0,4.77-12.06,40.64,40.64,0,0,0,.31-5.88v-.9A32.05,32.05,0,0,0,210.15,21Z"></path><path class="cls-3" d="M30.1,47.55c-.66,0-1.31,0-2,0A18.33,18.33,0,0,1,22,46.22a11.53,11.53,0,0,1-5.33-4.29,14.79,14.79,0,0,1-2-4.52,28.66,28.66,0,0,1-.66-7.56,21.14,21.14,0,0,1,.75-5.72,12.1,12.1,0,0,1,3.47-5.77,12.71,12.71,0,0,1,5.16-2.82,19.86,19.86,0,0,1,6.78-.63,15.26,15.26,0,0,1,5.69,1.37,10.7,10.7,0,0,1,5.72,6.44,14.5,14.5,0,0,1,.66,6.36A5.55,5.55,0,0,1,38.1,34a13.19,13.19,0,0,1-3.5.47H20.85a.87.87,0,0,0-.85,1,9.49,9.49,0,0,0,1.67,4.21,6.48,6.48,0,0,0,2.87,2.06,13.1,13.1,0,0,0,4.37.9A57.37,57.37,0,0,0,38,42.25c1.52-.16,2.35.64,2.35,1.76,0,.3,0,.57,0,1.35a1,1,0,0,1-.71,1,16.83,16.83,0,0,1-2.59.61A41.22,41.22,0,0,1,30.1,47.55Zm5.3-18a1.36,1.36,0,0,0,1.37-1.39,9,9,0,0,0-.2-2.94,6.47,6.47,0,0,0-5.05-5.21A12.21,12.21,0,0,0,26.2,20a7.22,7.22,0,0,0-5.6,4.55,12.79,12.79,0,0,0-.85,4.14.86.86,0,0,0,.86.94Z"></path><path class="cls-3" d="M185.79,47.56a20.6,20.6,0,0,1-2.24-.12,14,14,0,0,1-7.36-2.77,11.53,11.53,0,0,1-3.62-4.79,15.82,15.82,0,0,1-1.11-4.22,39.64,39.64,0,0,1-.08-8.19,15.49,15.49,0,0,1,1.72-6.06,11.84,11.84,0,0,1,6.34-5.48,15.5,15.5,0,0,1,4.38-1,19.52,19.52,0,0,1,7.56.68,12.18,12.18,0,0,1,6.05,4,12.66,12.66,0,0,1,2.22,4.4,21.74,21.74,0,0,1,.78,6.2v.93a31.94,31.94,0,0,1-.21,4.38,14.33,14.33,0,0,1-2.67,7,11.8,11.8,0,0,1-4.68,3.64,15.77,15.77,0,0,1-5,1.24C187.19,47.52,186.49,47.56,185.79,47.56Zm0-27.85a13,13,0,0,0-3.18.4,6.5,6.5,0,0,0-4.33,3.45,12.9,12.9,0,0,0-1.29,4.5,32.41,32.41,0,0,0-.06,5.62,13.49,13.49,0,0,0,1,4.51,7,7,0,0,0,4.74,4.11,12.42,12.42,0,0,0,6.15,0A6.42,6.42,0,0,0,193,39.52a11.19,11.19,0,0,0,1.52-4.09,19.87,19.87,0,0,0,.28-4.12V30.8c0-.32,0-.61,0-.9a15.24,15.24,0,0,0-.91-5.27A7,7,0,0,0,189,20.12,11.85,11.85,0,0,0,185.82,19.71Z"></path><path class="cls-3" d="M72,47.07A1.93,1.93,0,0,1,70,45.15v-17c0-.68,0-1.39,0-2.07a9.35,9.35,0,0,0-.66-2.93,4.93,4.93,0,0,0-3.46-3,15.24,15.24,0,0,0-4.4-.51,36,36,0,0,0-5.3.34l-.76.13a1.29,1.29,0,0,0-1,1.26V45.11A1.92,1.92,0,0,1,52.43,47H49.9c-.63,0-1.08-.22-1.17-.81a3.31,3.31,0,0,1,0-.44V19.53a7.8,7.8,0,0,1,.08-1.21,2.54,2.54,0,0,1,2.08-2.13,39.34,39.34,0,0,1,8.23-1.25,42.44,42.44,0,0,1,4.76,0,17.18,17.18,0,0,1,6.06,1.26,8.81,8.81,0,0,1,4.84,5.08,15.86,15.86,0,0,1,.92,5.69V45.88a1.19,1.19,0,0,1-1.19,1.19Z"></path><path class="cls-3" d="M105.39,47.07c-2.06,0-4.29-.77-5-2.73-.8-2.25-9.08-27-9.08-27-.09-.26-.18-.52-.25-.79a1,1,0,0,1,.11-.9c.14-.18.44-.34,1.08-.34h1.86a3.87,3.87,0,0,1,3.22,2.57l7.4,21.21a1.05,1.05,0,0,0,2,0l7.34-21.22a4,4,0,0,1,3.28-2.56h2.19a.9.9,0,0,1,.75.35,1.07,1.07,0,0,1,.08,1c-.17.54-.35,1.07-.53,1.6,0,0-8.26,24.48-8.87,26.07-.74,1.95-2.88,2.73-4.94,2.73Z"></path><path class="cls-3" d="M153.11,47.07c-2.05,0-4.29-.77-5-2.73-.8-2.25-9.08-27-9.08-27-.09-.26-.18-.52-.25-.79a1,1,0,0,1,.1-.9c.14-.18.44-.34,1.08-.34h1.86a3.88,3.88,0,0,1,3.23,2.57c.22.65,7.39,21.21,7.39,21.21a1.05,1.05,0,0,0,2,0s7.12-20.59,7.35-21.22a4,4,0,0,1,3.27-2.56h2.19a.89.89,0,0,1,.75.35,1.07,1.07,0,0,1,.09,1c-.17.54-.36,1.07-.54,1.6,0,0-8.26,24.48-8.86,26.07-.74,1.95-2.89,2.73-4.94,2.73Z"></path><path class="cls-1" d="M29.45,4h.28l156.36.07a29,29,0,0,1,8.64,1.26A23.07,23.07,0,0,1,206,12.94a23.54,23.54,0,0,1,4.14,8.1,32.05,32.05,0,0,1,1.22,9.24v.9a40.64,40.64,0,0,1-.31,5.88,24.87,24.87,0,0,1-4.77,12.06,22.63,22.63,0,0,1-8.88,7,26.29,26.29,0,0,1-8.36,2.12c-1,.1-2.09.15-3.11.15H28.4a29.06,29.06,0,0,1-9.64-2.07A22.54,22.54,0,0,1,8.47,47.93,25.15,25.15,0,0,1,5,40.1,38,38,0,0,1,4,29.79a32.06,32.06,0,0,1,1.18-8.62,23,23,0,0,1,6.61-10.82A23.66,23.66,0,0,1,21.3,5.1,28.93,28.93,0,0,1,29.45,4m0-4h0a33.15,33.15,0,0,0-9.26,1.25A27.62,27.62,0,0,0,9.1,7.4,27,27,0,0,0,1.34,20.06,35.56,35.56,0,0,0,0,29.75,41.33,41.33,0,0,0,1.15,41.11a29.31,29.31,0,0,0,4,9A26.6,26.6,0,0,0,17.24,60a33.07,33.07,0,0,0,11,2.37H185.94c1.15,0,2.32-.06,3.48-.17A29.88,29.88,0,0,0,199,59.74a26.45,26.45,0,0,0,10.44-8.2A28.78,28.78,0,0,0,215,37.6a43.65,43.65,0,0,0,.35-6.45v-.87A35.83,35.83,0,0,0,214,19.92a27.41,27.41,0,0,0-4.86-9.48,27.1,27.1,0,0,0-13.22-8.93A32.9,32.9,0,0,0,186.09.07L29.73,0Z"></path><rect class="cls-3" x="126.79" y="15.34" width="5.64" height="31.66" rx="1.28"></rect></g></g></svg> 